<?xml version="1.0" encoding="UTF-8" standalone="no"?>
<svg
   xmlns:dc="http://purl.org/dc/elements/1.1/"
   xmlns:cc="http://creativecommons.org/ns#"
   xmlns:rdf="http://www.w3.org/1999/02/22-rdf-syntax-ns#"
   xmlns:svg="http://www.w3.org/2000/svg"
   xmlns="http://www.w3.org/2000/svg"
   xmlns:xlink="http://www.w3.org/1999/xlink"
   xmlns:sodipodi="http://sodipodi.sourceforge.net/DTD/sodipodi-0.dtd"
   xmlns:inkscape="http://www.inkscape.org/namespaces/inkscape"
   width="100mm"
   height="100mm"
   viewBox="0 0 100 100"
   version="1.1"
   id="svg8"
   inkscape:version="1.0.1 (3bc2e813f5, 2020-09-07)"
   sodipodi:docname="canon.svg"
   inkscape:export-filename="/home/enet4/dev/gameoff2020/assets/images/canon.png"
   inkscape:export-xdpi="260.09494"
   inkscape:export-ydpi="260.09494">
  <defs
     id="defs2">
    <linearGradient
       inkscape:collect="always"
       id="linearGradient873">
      <stop
         style="stop-color:#9a9a9a;stop-opacity:1"
         offset="0"
         id="stop869" />
      <stop
         style="stop-color:#e5e5e5;stop-opacity:1"
         offset="1"
         id="stop871" />
    </linearGradient>
    <linearGradient
       inkscape:collect="always"
       id="linearGradient946">
      <stop
         style="stop-color:#000000;stop-opacity:1;"
         offset="0"
         id="stop942" />
      <stop
         style="stop-color:#cdcdcd;stop-opacity:1"
         offset="1"
         id="stop944" />
    </linearGradient>
    <radialGradient
       inkscape:collect="always"
       xlink:href="#linearGradient946"
       id="radialGradient948"
       cx="50"
       cy="50"
       fx="50"
       fy="50"
       r="37.500001"
       gradientUnits="userSpaceOnUse" />
    <linearGradient
       inkscape:collect="always"
       xlink:href="#linearGradient873"
       id="linearGradient867"
       x1="92.34584"
       y1="55.287151"
       x2="92.34584"
       y2="44.599457"
       gradientUnits="userSpaceOnUse"
       gradientTransform="matrix(1.1635333,0,0,0.99297795,-15.508968,0.35110277)" />
  </defs>
  <sodipodi:namedview
     id="base"
     pagecolor="#ffffff"
     bordercolor="#666666"
     borderopacity="1.0"
     inkscape:pageopacity="0.0"
     inkscape:pageshadow="2"
     inkscape:zoom="1.7820739"
     inkscape:cx="131.4335"
     inkscape:cy="180.62274"
     inkscape:document-units="mm"
     inkscape:current-layer="layer1"
     inkscape:document-rotation="0"
     showgrid="false"
     inkscape:window-width="1920"
     inkscape:window-height="1015"
     inkscape:window-x="0"
     inkscape:window-y="0"
     inkscape:window-maximized="1" />
  <metadata
     id="metadata5">
    <rdf:RDF>
      <cc:Work
         rdf:about="">
        <dc:format>image/svg+xml</dc:format>
        <dc:type
           rdf:resource="http://purl.org/dc/dcmitype/StillImage" />
        <dc:title></dc:title>
      </cc:Work>
    </rdf:RDF>
  </metadata>
  <g
     inkscape:label="Layer 1"
     inkscape:groupmode="layer"
     id="layer1">
    <rect
       style="fill:url(#linearGradient867);fill-opacity:1;stroke:#000002;stroke-width:0.429951;stroke-miterlimit:4;stroke-dasharray:none;stroke-opacity:1"
       id="rect865"
       width="14.155027"
       height="9.0977335"
       x="85.587959"
       y="45.45113" />
    <circle
       style="fill:none;stroke:#0000ff;stroke-width:0.636;stroke-miterlimit:4;stroke-dasharray:none;stroke-opacity:0"
       id="path833-5"
       cx="50"
       cy="50"
       r="49.682209" />
    <path
       id="path833"
       style="fill:url(#radialGradient948);fill-opacity:1;stroke:#000000;stroke-width:0.4;stroke-miterlimit:4;stroke-dasharray:none"
       d="m 48.429688,13.830078 c -5.644851,0.236379 -11.450746,1.886534 -16.447266,4.767578 -6.695977,3.839736 -12.043228,9.792525 -15.140625,16.869141 -2.831293,6.457033 -3.720795,13.693473 -2.531816,20.601858 1.287599,7.696538 5.18999,14.981003 10.916581,20.329783 5.436991,5.128695 12.638008,8.563545 20.114954,9.500496 9.151511,1.229184 18.759135,-1.249778 26.205982,-6.812812 C 79.20481,73.474996 84.470546,64.690935 85.818038,55.253006 87.188601,46.218605 84.912806,36.641043 79.59321,29.147179 75.32007,23.061242 69.139916,18.370761 62.101562,15.878906 57.730964,14.327939 53.083318,13.635356 48.429688,13.830078 Z m 1.474609,3.439453 c 9.212304,-0.06506 18.356391,3.991825 24.467879,10.889995 6.331767,6.98329 9.359038,16.79967 8.072671,26.136438 -1.139504,8.92867 -6.17463,17.26447 -13.549033,22.426879 -7.73508,5.533083 -17.94579,7.396672 -27.136343,4.950564 -8.748695,-2.233135 -16.427439,-8.282074 -20.635249,-16.272862 -4.555488,-8.419752 -5.100177,-18.866422 -1.44653,-27.714528 3.437007,-8.59517 10.719052,-15.535144 19.4665,-18.560715 3.449152,-1.216966 7.103712,-1.835812 10.760105,-1.855771 z" />
  </g>
</svg>
